<mxfile host="65bd71144e">
    <diagram id="0UISWenvNpgqy7XjVjNh" name="PÃ¡gina-1">
        <mxGraphModel dx="957" dy="441" grid="1" gridSize="10" guides="1" tooltips="1" connect="1" arrows="1" fold="1" page="1" pageScale="1" pageWidth="827" pageHeight="1169" math="0" shadow="0">
            <root>
                <mxCell id="0"/>
                <mxCell id="1" parent="0"/>
                <mxCell id="9" value="" style="html=1;shadow=0;dashed=0;shape=mxgraph.bootstrap.rrect;rSize=5;strokeColor=#D2D3D4;html=1;whiteSpace=wrap;fillColor=#F8F9FA;fontColor=#212529;verticalAlign=bottom;align=left;spacing=20;spacingBottom=0;fontSize=14;rounded=1;" vertex="1" parent="1">
                    <mxGeometry x="320" y="170" width="580" height="90" as="geometry"/>
                </mxCell>
                <mxCell id="10" value="" style="html=1;shadow=0;dashed=0;shape=mxgraph.bootstrap.topButton;rSize=5;perimeter=none;whiteSpace=wrap;fillColor=#F0F1F2;strokeColor=#D2D3D4;fontColor=#212529;resizeWidth=1;fontSize=18;align=left;spacing=20;rounded=1;" vertex="1" parent="9">
                    <mxGeometry width="580" height="60" relative="1" as="geometry"/>
                </mxCell>
                <mxCell id="16" value="" style="html=1;shadow=0;dashed=0;shape=mxgraph.bootstrap.rrect;rSize=5;strokeColor=#D2D3D4;html=1;whiteSpace=wrap;fillColor=#F8F9FA;fontColor=#212529;verticalAlign=bottom;align=left;spacing=20;spacingBottom=0;fontSize=14;rounded=1;" vertex="1" parent="9">
                    <mxGeometry width="580" height="90" as="geometry"/>
                </mxCell>
                <mxCell id="83" value="\" style="text;html=1;align=left;verticalAlign=middle;resizable=0;points=[];autosize=1;strokeColor=none;fillColor=none;fontSize=12;fontStyle=1" vertex="1" parent="9">
                    <mxGeometry x="10" width="30" height="30" as="geometry"/>
                </mxCell>
                <mxCell id="84" value="Main motor doesn't start." style="text;html=1;align=left;verticalAlign=middle;resizable=0;points=[];autosize=1;strokeColor=none;fillColor=none;fontSize=12;fontStyle=1" vertex="1" parent="9">
                    <mxGeometry x="10" width="170" height="30" as="geometry"/>
                </mxCell>
                <mxCell id="85" value="Subject" style="text;html=1;align=right;verticalAlign=middle;resizable=0;points=[];autosize=1;strokeColor=none;fillColor=none;fontSize=10;fontStyle=0;spacing=0;" vertex="1" parent="9">
                    <mxGeometry x="-60" y="4.7368421052631575" width="50" height="20" as="geometry"/>
                </mxCell>
                <mxCell id="28" value="Automotive Parts Inc." style="text;html=1;align=left;verticalAlign=middle;resizable=0;points=[];autosize=1;strokeColor=none;fillColor=none;fontSize=12;fontStyle=1" vertex="1" parent="1">
                    <mxGeometry x="330" y="230" width="150" height="30" as="geometry"/>
                </mxCell>
                <mxCell id="30" value="Company name" style="text;html=1;align=right;verticalAlign=middle;resizable=0;points=[];autosize=1;strokeColor=none;fillColor=none;fontSize=10;fontStyle=0;spacing=0;" vertex="1" parent="1">
                    <mxGeometry x="220" y="235" width="90" height="20" as="geometry"/>
                </mxCell>
                <mxCell id="31" value="BB0101" style="text;html=1;align=left;verticalAlign=middle;resizable=0;points=[];autosize=1;strokeColor=none;fillColor=none;fontSize=10;fontStyle=1" vertex="1" parent="1">
                    <mxGeometry x="330" y="210" width="60" height="30" as="geometry"/>
                </mxCell>
                <mxCell id="32" value="Equipment serial" style="text;html=1;align=right;verticalAlign=middle;resizable=0;points=[];autosize=1;strokeColor=none;fillColor=none;fontSize=10;fontStyle=0;spacing=0;" vertex="1" parent="1">
                    <mxGeometry x="220" y="215" width="90" height="20" as="geometry"/>
                </mxCell>
                <mxCell id="33" value="CC100" style="text;html=1;align=left;verticalAlign=middle;resizable=0;points=[];autosize=1;strokeColor=none;fillColor=none;fontSize=10;fontStyle=1" vertex="1" parent="1">
                    <mxGeometry x="330" y="190" width="50" height="30" as="geometry"/>
                </mxCell>
                <mxCell id="34" value="Equipment model" style="text;html=1;align=right;verticalAlign=middle;resizable=0;points=[];autosize=1;strokeColor=none;fillColor=none;fontSize=10;fontStyle=0;spacing=0;" vertex="1" parent="1">
                    <mxGeometry x="210" y="195" width="100" height="20" as="geometry"/>
                </mxCell>
                <mxCell id="86" value="Opened" style="html=1;shadow=0;dashed=0;shape=mxgraph.bootstrap.rrect;rSize=5;strokeColor=#9673a6;strokeWidth=1;fillColor=#e1d5e7;whiteSpace=wrap;align=center;verticalAlign=middle;spacingLeft=0;fontStyle=1;fontSize=10;spacing=5;" vertex="1" parent="1">
                    <mxGeometry x="620" y="175" width="50" height="15" as="geometry"/>
                </mxCell>
                <mxCell id="87" value="In Progress" style="html=1;shadow=0;dashed=0;shape=mxgraph.bootstrap.rrect;rSize=5;strokeColor=#d6b656;strokeWidth=1;fillColor=#fff2cc;whiteSpace=wrap;align=center;verticalAlign=middle;spacingLeft=0;fontStyle=1;fontSize=10;spacing=5;" vertex="1" parent="1">
                    <mxGeometry x="679" y="175" width="71" height="15" as="geometry"/>
                </mxCell>
                <mxCell id="88" value="Resolved" style="html=1;shadow=0;dashed=0;shape=mxgraph.bootstrap.rrect;rSize=5;strokeColor=#82b366;strokeWidth=1;fillColor=#d5e8d4;whiteSpace=wrap;align=center;verticalAlign=middle;spacingLeft=0;fontStyle=1;fontSize=10;spacing=5;" vertex="1" parent="1">
                    <mxGeometry x="760" y="175" width="60" height="15" as="geometry"/>
                </mxCell>
                <mxCell id="89" value="Closed" style="html=1;shadow=0;dashed=0;shape=mxgraph.bootstrap.rrect;rSize=5;strokeColor=#666666;strokeWidth=1;fillColor=#f5f5f5;whiteSpace=wrap;align=center;verticalAlign=middle;spacingLeft=0;fontStyle=1;fontSize=10;spacing=5;fontColor=#333333;" vertex="1" parent="1">
                    <mxGeometry x="830" y="175" width="60" height="15" as="geometry"/>
                </mxCell>
                <mxCell id="90" value="Opened" style="html=1;shadow=0;dashed=0;shape=mxgraph.bootstrap.rrect;rSize=5;strokeColor=#b85450;strokeWidth=1;fillColor=#f8cecc;whiteSpace=wrap;align=center;verticalAlign=middle;spacingLeft=0;fontStyle=1;fontSize=10;spacing=5;" vertex="1" parent="1">
                    <mxGeometry x="620" y="175" width="50" height="15" as="geometry"/>
                </mxCell>
                <mxCell id="91" value="In Progress" style="html=1;shadow=0;dashed=0;shape=mxgraph.bootstrap.rrect;rSize=5;strokeColor=#d6b656;strokeWidth=1;fillColor=#fff2cc;whiteSpace=wrap;align=center;verticalAlign=middle;spacingLeft=0;fontStyle=1;fontSize=10;spacing=5;" vertex="1" parent="1">
                    <mxGeometry x="679" y="175" width="71" height="15" as="geometry"/>
                </mxCell>
                <mxCell id="92" value="Resolved" style="html=1;shadow=0;dashed=0;shape=mxgraph.bootstrap.rrect;rSize=5;strokeColor=#82b366;strokeWidth=1;fillColor=#d5e8d4;whiteSpace=wrap;align=center;verticalAlign=middle;spacingLeft=0;fontStyle=1;fontSize=10;spacing=5;" vertex="1" parent="1">
                    <mxGeometry x="760" y="175" width="60" height="15" as="geometry"/>
                </mxCell>
                <mxCell id="93" value="Closed" style="html=1;shadow=0;dashed=0;shape=mxgraph.bootstrap.rrect;rSize=5;strokeColor=#666666;strokeWidth=1;fillColor=#f5f5f5;whiteSpace=wrap;align=center;verticalAlign=middle;spacingLeft=0;fontStyle=1;fontSize=10;spacing=5;fontColor=#333333;" vertex="1" parent="1">
                    <mxGeometry x="830" y="175" width="60" height="15" as="geometry"/>
                </mxCell>
                <mxCell id="94" value="&lt;font style=&quot;font-size: 10px;&quot;&gt;Technician/Engineer&lt;/font&gt;" style="html=1;shadow=0;dashed=0;shape=mxgraph.bootstrap.rrect;rSize=5;strokeColor=#505050;strokeWidth=1;fillColor=#ffffff;fontColor=#777777;whiteSpace=wrap;align=left;verticalAlign=middle;fontStyle=0;fontSize=12;spacing=5;rounded=1;spacingBottom=2;" vertex="1" parent="1">
                    <mxGeometry x="770" y="197.5" width="120" height="15" as="geometry"/>
                </mxCell>
                <mxCell id="95" value="" style="shape=triangle;direction=south;fillColor=#495057;strokeColor=none;perimeter=none;rounded=1;fontSize=10;" vertex="1" parent="94">
                    <mxGeometry x="1" y="0.5" width="10" height="5" relative="1" as="geometry">
                        <mxPoint x="-17" y="-2.5" as="offset"/>
                    </mxGeometry>
                </mxCell>
                <mxCell id="96" value="Created: 2 days ago" style="text;html=1;align=right;verticalAlign=middle;resizable=0;points=[];autosize=1;strokeColor=none;fillColor=none;fontSize=10;fontStyle=1" vertex="1" parent="1">
                    <mxGeometry x="770" y="230" width="120" height="30" as="geometry"/>
                </mxCell>
                <mxCell id="97" value="Assign technician/engineer" style="text;html=1;align=left;verticalAlign=middle;resizable=0;points=[];autosize=1;strokeColor=none;fillColor=none;fontSize=10;fontStyle=0;spacing=0;" vertex="1" parent="1">
                    <mxGeometry x="910" y="195" width="140" height="20" as="geometry"/>
                </mxCell>
                <mxCell id="98" value="Date/time" style="text;html=1;align=left;verticalAlign=middle;resizable=0;points=[];autosize=1;strokeColor=none;fillColor=none;fontSize=10;fontStyle=0;spacing=0;" vertex="1" parent="1">
                    <mxGeometry x="910" y="235" width="60" height="20" as="geometry"/>
                </mxCell>
                <mxCell id="99" value="Status" style="html=1;shadow=0;dashed=0;shape=mxgraph.bootstrap.rrect;rSize=5;strokeColor=none;strokeWidth=1;fillColor=none;align=left;verticalAlign=middle;spacingLeft=0;fontStyle=0;fontSize=10;spacing=0;" vertex="1" parent="1">
                    <mxGeometry x="910" y="175" width="50" height="15" as="geometry"/>
                </mxCell>
                <mxCell id="100" value="Assistance" style="text;html=1;align=right;verticalAlign=middle;resizable=0;points=[];autosize=1;strokeColor=none;fillColor=none;fontSize=10;fontStyle=1" vertex="1" parent="1">
                    <mxGeometry x="810" y="215" width="80" height="30" as="geometry"/>
                </mxCell>
                <mxCell id="101" value="Intervention Type" style="text;html=1;align=left;verticalAlign=middle;resizable=0;points=[];autosize=1;strokeColor=none;fillColor=none;fontSize=10;fontStyle=0;spacing=0;" vertex="1" parent="1">
                    <mxGeometry x="910" y="220" width="100" height="20" as="geometry"/>
                </mxCell>
            </root>
        </mxGraphModel>
    </diagram>
</mxfile>